<?xml version="1.0" encoding="utf-8"?>
<svg viewBox="0 0 300 310" xmlns="http://www.w3.org/2000/svg">
  <rect width="192.038" height="179.6" fill="transparent" style="" y="65.2" x="53.981"/>
  <g transform="matrix(0.242192, 0, 0, 0.242192, 143.694977, 156.642426)" style=""/>
  <g transform="matrix(0.242192, 0, 0, 0.242192, 143.694977, 156.642426)" style=""/>
  <path style="stroke: none; stroke-width: 1; stroke-dasharray: none; stroke-linecap: butt; stroke-dashoffset: 0; stroke-linejoin: miter; stroke-miterlimit: 4; fill: rgb(0, 0, 0); fill-rule: nonzero; opacity: 1;" vector-effect="non-scaling-stroke" d="M 197.338 187.876 L 179.254 168.02 C 178.282 167.048 176.622 167.493 176.267 168.821 C 176.226 168.97 176.206 169.125 176.206 169.28 L 176.206 209.026 C 176.206 210.627 178.145 211.416 179.254 210.286 L 197.338 190.39 C 198.041 189.699 198.041 188.567 197.338 187.876 Z"/>
  <path style="stroke: none; stroke-width: 1; stroke-dasharray: none; stroke-linecap: butt; stroke-dashoffset: 0; stroke-linejoin: miter; stroke-miterlimit: 4; fill: rgb(0, 0, 0); fill-rule: nonzero; opacity: 1;" vector-effect="non-scaling-stroke" d="M 187.101 141.26 C 187.57 144.215 190.355 146.225 193.308 145.737 C 196.263 145.271 198.274 142.487 197.786 139.534 C 193.733 114.351 171.834 104.328 160.811 102.559 C 159.247 102.314 157.653 102.757 156.439 103.773 C 155.231 104.798 154.536 106.305 154.541 107.89 L 154.541 175.995 C 150.681 174.033 146.055 172.883 141.002 172.883 C 127.333 172.883 116.627 181.222 116.627 191.837 C 116.627 202.458 127.333 210.797 141.002 210.797 C 154.672 210.797 165.373 202.458 165.373 191.84 L 165.373 115.14 C 172.817 118.08 184.521 125.203 187.101 141.26 Z M 94.963 118.743 L 138.291 118.743 C 141.281 118.739 143.704 116.317 143.709 113.328 C 143.706 110.337 141.282 107.914 138.291 107.91 L 94.963 107.91 C 90.793 108.046 88.334 112.646 90.537 116.19 C 91.492 117.728 93.154 118.686 94.963 118.745 L 94.963 118.743 Z"/>
  <path style="stroke: none; stroke-width: 1; stroke-dasharray: none; stroke-linecap: butt; stroke-dashoffset: 0; stroke-linejoin: miter; stroke-miterlimit: 4; fill: rgb(0, 0, 0); fill-rule: nonzero; opacity: 1;" vector-effect="non-scaling-stroke" d="M 94.963 140.378 L 138.291 140.378 C 141.281 140.375 143.704 137.953 143.709 134.964 C 143.706 131.973 141.282 129.549 138.291 129.546 L 94.963 129.546 C 91.974 129.551 89.552 131.974 89.548 134.964 C 89.548 137.948 91.976 140.378 94.963 140.378 Z M 143.706 156.628 C 143.703 153.638 141.281 151.215 138.291 151.21 L 94.963 151.21 C 91.974 151.215 89.552 153.638 89.548 156.628 C 89.548 159.613 91.976 162.042 94.963 162.042 L 138.291 162.042 C 141.281 162.039 143.704 159.618 143.709 156.628 L 143.706 156.628 Z"/>
</svg>