<svg id="e71vIT0rXVE1" xmlns="http://www.w3.org/2000/svg" xmlns:xlink="http://www.w3.org/1999/xlink" viewBox="0 0 10 7" shape-rendering="geometricPrecision" text-rendering="geometricPrecision" style="background-color:transparent">

   <g transform="translate(-110.386921-119.830272)">
      <g transform="matrix(.202981 0 0 0.202981 112.154 120.896)">
         <g>
            <path d="M26.386,10.812v-2.09h-2.898v1.018l1.081,1.073Z" transform="translate(-.000005 0)"/>
            <path d="M33.552,22.112v-4.409h.665l.618-.611L27.513,9.77h-.909v1.269h-2.13L23.205,9.77h-3.516l-7.314,7.314.618.618h.979v4.409c-12.515698-.122696,4.955577-.001-10.399-.001v1.88h32.148v-1.88h-2.169Zm-7.95-4.307h7.166v4.307h-7.166Zm-10.861-.854l4.95-4.95l4.95,4.95v5.161h-5.435v-3.884h-2.749v3.884h-1.722v-5.161Z" transform="translate(-.000005 0)"/>
            <path d="M20.912,18.228h2.091v2.091h-2.091Z" transform="translate(-.000005 0)"/>
            <path d="M28.14,18.228h2.091v2.091h-2.091Z" transform="translate(-.000005 0)"/>
         </g>
         <g id="e71vIT0rXVE9_tr" transform="translate(15.669406,26.091166) rotate(8.303318)">
            <path d="M12.061,22.111C9.203,19.377,4.577427,13.176,4.844427,8.563l.047-.094h.022999c1.25,0,2.358001.606,3.048,1.54l.007.01c.52.703.833001,1.588.833001,2.545c0,.66-.148,1.285-.414,1.844l.010999-.026c.583-.152,1.09-.42,1.518001-.78l-.006.005c.897999-.786,1.461-1.933,1.461-3.213c0-.955-.314001-1.836-.844001-2.546l.008.011c-.681999-.942-1.776999-1.547-3.014999-1.547-.386001,0-.757.059-1.107001.168l.026-.007c.265-.165.57-.311.891-.422l.032-.01c.405-.153.874001-.241,1.363-.241c1.083,0,2.064.433,2.781001,1.134l-.001-.001c.039-.196.061-.422.061-.653c0-.359-.054-.706-.154-1.032l.007.025c-.521001-1.505-1.926-2.566-3.579-2.566-.499,0-.975.097-1.412.273l.025-.009c-.266.093-.489.191-.702.303l.029-.014c-.075-.336-.174-.63-.301-.909l.012.029c-.88-1.973-2.898-2.905-4.511-2.09-.447.231-.815.555-1.09.95l-.006.01c1.189.119,2.199.792,2.779,1.753l.008999.016c-.349-.177-.753999-.323-1.179-.417l-.034-.006c-2.48-.533-4.839999.814-5.263,3.015-.040999.206-.064.444-.064.686c0,.392.061.771.173,1.126l-.006999-.026c.84-.948,2.059999-1.542,3.419-1.542.388,0,.764.048,1.124.14l-.032-.007c.409.086.771.21,1.11.373l-.029-.013c-.163-.023-.351-.036-.542-.036-1.531,0-2.866.836-3.575001,2.076l-.011.02c-.404.674-.642999,1.488-.642999,2.357c0,1.568.777,2.954,1.968,3.794l.015.01c.493164.328776,1.077.562,1.709.648l.021.002c-.421-.692-.671-1.528-.671-2.423c0-.873.237-1.691.651-2.392l-.012.022c.623-1.073,1.682-1.836,2.927-2.048l.025-.004C2.336427,14.827,5.81,19.323,6.979,22.11c-.00848.488128.00831.188008,5.082.001Z" transform="translate(-15.768141,-23.810123)"/>
         </g>
      </g>
   </g>
</svg>