<?xml version="1.0" encoding="utf-8"?>
<!-- Generator: Adobe Illustrator 16.0.0, SVG Export Plug-In . SVG Version: 6.00 Build 0)  -->
<!DOCTYPE svg PUBLIC "-//W3C//DTD SVG 1.1//EN" "http://www.w3.org/Graphics/SVG/1.1/DTD/svg11.dtd">
<svg version="1.1" id="Layer_1" xmlns="http://www.w3.org/2000/svg" xmlns:xlink="http://www.w3.org/1999/xlink" x="0px" y="0px"
	 width="600px" height="800px" viewBox="0 0 600 800" enable-background="new 0 0 600 800" xml:space="preserve">
<title>GitHub icon</title>
<path d="M300,258.099c-80.389,0-145.5,65.148-145.5,145.5c0,64.299,41.686,118.824,99.486,138.043
	c7.275,1.37,9.942-3.129,9.942-6.996c0-3.456-0.122-12.61-0.182-24.735c-40.473,8.778-49.009-19.521-49.009-19.521
	c-6.621-16.793-16.187-21.279-16.187-21.279c-13.18-9.021,1.018-8.839,1.018-8.839c14.611,1.019,22.286,14.986,22.286,14.986
	c12.974,22.25,34.059,15.823,42.377,12.101c1.31-9.409,5.056-15.822,9.215-19.46c-32.313-3.638-66.275-16.15-66.275-71.901
	c0-15.884,5.638-28.857,14.975-39.042c-1.637-3.674-6.547-18.467,1.273-38.509c0,0,12.186-3.904,40.013,14.914
	c11.64-3.238,24.007-4.838,36.375-4.911c12.367,0.073,24.735,1.673,36.375,4.911c27.646-18.818,39.831-14.914,39.831-14.914
	c7.82,20.042,2.91,34.835,1.455,38.509c9.275,10.185,14.913,23.159,14.913,39.042c0,55.896-34.011,68.203-66.384,71.78
	c5.092,4.364,9.821,13.289,9.821,26.917c0,19.473-0.183,35.114-0.183,39.843c0,3.819,2.547,8.366,10.004,6.911
	C403.851,522.363,445.5,467.801,445.5,403.6C445.5,323.247,380.353,258.099,300,258.099"/>
</svg>
