<svg xmlns="http://www.w3.org/2000/svg" id="Layer_1" x="0" y="0" width="600" height="800" viewBox="0 0 600 800"><style>.a{fill:#1ED761;}</style><pattern width="10" height="10" patternUnits="userSpaceOnUse" id="New_Pattern_7" viewBox="1.45 -11.67 10 10"><polygon points="1.45 -11.67 11.45 -11.67 11.45 -1.67 1.45 -1.67 " fill="none"/><path d="M11.54 0c1.94 0 1.94-3 0-3S9.6 0 11.54 0L11.54 0z" class="a"/><path d="M1.54 0c1.94 0 1.94-3 0-3S-0.4 0 1.54 0L1.54 0z" class="a"/><path d="M6.45 0c1.94 0 1.94-3 0-3S4.52 0 6.45 0L6.45 0z" class="a"/><path d="M11.54-10c1.94 0 1.94-3 0-3S9.6-10 11.54-10L11.54-10z" class="a"/><path d="M11.45-4.42c1.94 0 1.94-3 0-3S9.52-4.42 11.45-4.42L11.45-4.42z" class="a"/><path d="M1.54-10c1.94 0 1.94-3 0-3S-0.4-10 1.54-10L1.54-10z" class="a"/><path d="M1.45-4.42c1.94 0 1.94-3 0-3S-0.48-4.42 1.45-4.42L1.45-4.42z" class="a"/><path d="M6.45-10c1.94 0 1.94-3 0-3S4.52-10 6.45-10L6.45-10z" class="a"/><path d="M6.45-5.17c1.94 0 1.94-3 0-3S4.52-5.17 6.45-5.17L6.45-5.17z" class="a"/></pattern><path d="M361.25 380.17c0 47.61-38.6 86.21-86.21 86.21s-86.21-38.59-86.21-86.21c0-47.61 38.6-86.21 86.21-86.21S361.25 332.55 361.25 380.17zM339.91 442.11L339.91 442.11l93.25 78.42 0 0L339.91 442.11z" fill="url(#New_Pattern_7)"/><path d="M361.25 380.17c0 47.61-38.6 86.21-86.21 86.21s-86.21-38.59-86.21-86.21c0-47.61 38.6-86.21 86.21-86.21S361.25 332.55 361.25 380.17zM339.91 442.11L339.91 442.11l93.25 78.42 0 0L339.91 442.11z" style="fill:none;stroke-width:40;stroke:#1ED761"/></svg>