<?xml version="1.0" encoding="utf-8"?>
<!-- Generator: Adobe Illustrator 16.0.0, SVG Export Plug-In . SVG Version: 6.00 Build 0)  -->
<!DOCTYPE svg PUBLIC "-//W3C//DTD SVG 1.1//EN" "http://www.w3.org/Graphics/SVG/1.1/DTD/svg11.dtd">
<svg version="1.1" id="Layer_1" xmlns="http://www.w3.org/2000/svg" xmlns:xlink="http://www.w3.org/1999/xlink" x="0px" y="0px"
	 width="959.375px" height="1281.833px" viewBox="-184.875 -237.333 959.375 1281.833"
	 enable-background="new -184.875 -237.333 959.375 1281.833" xml:space="preserve">
<path fill="none" stroke="#000000" stroke-width="7" stroke-miterlimit="10" d="M483.103,304.273l-17.075-11.614v-73.488h-56.054
	v35.363l-108.286-73.651l-181.417,123.39v314.843h141.333v-86.302h80.165v86.302h142.046V304.273H483.103z M421.674,401.954h-28.668
	v-33.747h28.668V401.954z M385.488,401.954h-31.405v-33.747h31.405V401.954z M245.184,403.45h-30.037v-35.074h30.037V403.45z
	 M207.629,403.45h-30.037v-35.074h30.037V403.45z M177.592,411.07h30.037v32.421h-30.037V411.07z M215.147,443.491V411.07h30.037
	v32.421H215.147L215.147,443.491z M354.083,409.574h31.405v33.748h-31.405V409.574z M393.006,443.322v-33.748h28.668v33.748H393.006
	L393.006,443.322z"/>
</svg>
