<?xml version="1.0" encoding="utf-8"?>
<svg viewBox="5.837 3.274 35.208 41.054" fill="#000000" xmlns="http://www.w3.org/2000/svg">
  <g transform="matrix(0.767171, 0, 0, 0.767171, 9.739326, 14.600631)" style="">
    <path d="M 20.912 18.228 L 23.003 18.228 L 23.003 20.319 L 20.912 20.319 L 20.912 18.228 Z"/>
    <path d="M 28.14 18.228 L 30.231 18.228 L 30.231 20.319 L 28.14 20.319 L 28.14 18.228 Z"/>
    <path d="M 26.386 10.812 L 26.386 8.722 L 23.488 8.722 L 23.488 9.74 L 24.569 10.813 L 26.386 10.812 Z"/>
    <path d="M 33.552 22.112 L 33.552 17.703 L 34.217 17.703 L 34.835 17.092 L 27.513 9.77 L 26.604 9.77 L 26.604 11.039 L 24.474 11.039 L 23.205 9.77 L 19.689 9.77 L 12.375 17.084 L 12.993 17.702 L 13.972 17.702 L 13.972 22.111 L 12.061 22.111 C 9.203 19.377 8.443 13.176 8.71 8.563 L 8.757 8.469 L 8.78 8.469 C 10.03 8.469 11.138 9.075 11.828 10.009 L 11.835 10.019 C 12.355 10.722 12.668 11.607 12.668 12.564 C 12.668 13.224 12.52 13.849 12.254 14.408 L 12.265 14.382 C 12.848 14.23 13.355 13.962 13.783 13.602 L 13.777 13.607 C 14.675 12.821 15.238 11.674 15.238 10.394 C 15.238 9.439 14.924 8.558 14.394 7.848 L 14.402 7.859 C 13.72 6.917 12.625 6.312 11.387 6.312 C 11.001 6.312 10.63 6.371 10.28 6.48 L 10.306 6.473 C 10.571 6.308 10.876 6.162 11.197 6.051 L 11.229 6.041 C 11.634 5.888 12.103 5.8 12.592 5.8 C 13.675 5.8 14.656 6.233 15.373 6.934 L 15.372 6.933 C 15.411 6.737 15.433 6.511 15.433 6.28 C 15.433 5.921 15.379 5.574 15.279 5.248 L 15.286 5.273 C 14.765 3.768 13.36 2.707 11.707 2.707 C 11.208 2.707 10.732 2.804 10.295 2.98 L 10.32 2.971 C 10.054 3.064 9.831 3.162 9.618 3.274 L 9.647 3.26 C 9.572 2.924 9.473 2.63 9.346 2.351 L 9.358 2.38 C 8.478 0.407 6.46 -0.525 4.847 0.29 C 4.4 0.521 4.032 0.845 3.757 1.24 L 3.751 1.25 C 4.94 1.369 5.95 2.042 6.53 3.003 L 6.539 3.019 C 6.19 2.842 5.785 2.696 5.36 2.602 L 5.326 2.596 C 2.846 2.063 0.486 3.41 0.063 5.611 C 0.022 5.817 -0.001 6.055 -0.001 6.297 C -0.001 6.689 0.06 7.068 0.172 7.423 L 0.165 7.397 C 1.005 6.449 2.225 5.855 3.584 5.855 C 3.972 5.855 4.348 5.903 4.708 5.995 L 4.676 5.988 C 5.085 6.074 5.447 6.198 5.786 6.361 L 5.757 6.348 C 5.594 6.325 5.406 6.312 5.215 6.312 C 3.684 6.312 2.349 7.148 1.64 8.388 L 1.629 8.408 C 1.225 9.082 0.986 9.896 0.986 10.765 C 0.986 12.333 1.763 13.719 2.954 14.559 L 2.969 14.569 C 3.46 14.901 4.046 15.131 4.678 15.217 L 4.699 15.219 C 4.278 14.527 4.028 13.691 4.028 12.796 C 4.028 11.923 4.265 11.105 4.679 10.404 L 4.667 10.426 C 5.29 9.353 6.349 8.59 7.594 8.378 L 7.619 8.374 C 6.202 14.827 5.81 19.323 6.979 22.11 L 3.573 22.11 L 3.573 23.99 L 35.721 23.99 L 35.721 22.11 L 33.552 22.11 L 33.552 22.112 Z M 25.602 17.805 L 32.768 17.805 L 32.768 22.112 L 25.602 22.112 L 25.602 17.805 Z M 14.741 16.951 L 19.691 12.001 L 24.641 16.951 L 24.641 22.112 L 19.206 22.112 L 19.206 18.228 L 16.457 18.228 L 16.457 22.112 L 14.735 22.112 L 14.735 16.951 L 14.741 16.951 Z"/>
  </g>
</svg>