<svg width="1300" height="1000" xmlns="http://www.w3.org/2000/svg">
 <metadata>Svg Vector Icons : http://www.onlinewebfonts.com/icon</metadata>

 <g>
  <title>background</title>
  <rect fill="none" id="canvas_background" height="1002" width="1302" y="-1" x="-1"/>
 </g>
 <g>
  <title>Layer 1</title>
  <g id="svg_1">
   <g id="svg_2" transform="translate(0,511) scale(0.10000000149011612,-0.10000000149011612) ">
    <path id="svg_3" d="m2345.4,4366.5c-171.8,-63.7 -281.9,-169.9 -364.9,-351.4c-44.4,-92.7 -44.4,-106.2 -54.1,-1042.5l-9.7,-949.9l-878.4,-704.7c-482.5,-386 -888,-720 -901.5,-741.3c-69.5,-117.7 -36.7,-310.8 65.7,-391.9c75.3,-57.9 185.3,-83 272.2,-59.8c46.3,13.5 204.6,127.4 446,320.5c204.6,164.1 380.3,299.2 390,299.2s19.3,-1007.8 21.2,-2243.4l5.8,-2245.3l48.3,-92.7c57.9,-113.9 185.3,-233.6 305,-289.6c88.8,-42.5 104.3,-42.5 1162.2,-42.5l1071.5,0l110,54c125.5,61.8 233.6,171.8 293.4,301.2c40.5,86.9 40.5,108.1 46.3,1397.7l5.8,1307.1l615.9,0l615.9,0l5.8,-1307.1c5.8,-1289.6 5.8,-1310.9 46.3,-1397.7c59.8,-129.4 167.9,-239.4 293.4,-301.2l110,-54l1071.5,0c1054.1,0 1073.4,0 1160.3,40.5c133.2,61.8 247.1,175.7 310.8,307l54.1,115.8l0,2226c0,1253 7.7,2224.1 17.4,2224.1c9.6,0 185.3,-135.1 390,-299.2c241.3,-193.1 399.6,-307 447.9,-320.5c81.1,-21.2 187.3,0 262.6,52.1c54.1,38.6 115.8,169.9 117.8,245.2c0,142.9 30.9,115.8 -2421,2077.4l-2355.3,1884.3l-127.4,0l-127.4,0l-849.5,-679.6l-847.5,-677.6l-9.7,446c-9.7,430.5 -11.6,451.8 -59.9,554.1c-65.6,142.9 -146.7,231.7 -272.2,299.2c-83,46.3 -129.3,56 -256.8,61.8c-100.3,3.8 -179.5,-3.9 -227.8,-21.3zm4195.3,-1893.9l1523.3,-1216.3l0,-2407.5l1.9,-2409.4l-926.7,0l-926.7,0l0,1525.2l0,1525.2l-1216.3,0l-1216.3,0l0,-1525.2l0,-1525.2l-926.7,0l-926.7,0l1.9,2409.4l0,2407.5l1529.1,1220.2c841.8,671.9 1536.8,1220.2 1544.5,1216.3c9.6,-2 702.7,-552.2 1538.7,-1220.2z"/>
   </g>
  </g>
 </g>
</svg>